<?xml version="1.0" encoding="utf-8"?>
<!-- Generator: Adobe Illustrator 24.2.3, SVG Export Plug-In . SVG Version: 6.00 Build 0)  -->
<svg version="1.1" id="Layer_1" xmlns="http://www.w3.org/2000/svg" xmlns:xlink="http://www.w3.org/1999/xlink" x="0px" y="0px"
	 viewBox="0 0 600 600" style="enable-background:new 0 0 600 600;" xml:space="preserve">
<style type="text/css">
	.st0{opacity:0.4;fill:#FF4747;enable-background:new    ;}
	.st1{fill:#FF4747;}
	.st2{opacity:0.4;fill:#1E90FF;enable-background:new    ;}
	.st3{fill:#1E90FF;}
</style>
<g>
	<g>
		<path class="st0" d="M330.51,210.27H82.39c-26.02,0-47.15,21.13-47.15,47.15v130.61c0,26.02,21.13,47.15,47.15,47.15l0,0
			c2.41,0,4.35,1.94,4.35,4.35l0.33,68.22c0,6.55,3.34,11.9,8.63,8.03l66.81-79.45c0.74-0.54,1.67-0.87,2.61-0.87l165.39-0.33
			c26.02,0,47.15-21.13,47.15-47.15V257.42C377.66,231.41,356.53,210.27,330.51,210.27z"/>
		<path class="st1" d="M35.24,210.27"/>
	</g>
</g>
<g>
	<g>
		<path class="st2" d="M222.34,130.07v130.55c0,26.02,21.13,47.15,47.15,47.15l165.39,0.33c0.94,0,1.87,0.33,2.61,0.87l66.81,79.45
			c5.28,3.88,8.63-1.47,8.63-8.03l0.33-68.22c0-2.41,1.94-4.35,4.35-4.35l0,0c26.02,0,47.15-21.13,47.15-47.15V130.07
			c0-26.02-21.13-47.15-47.15-47.15H269.49C243.47,82.92,222.34,104.05,222.34,130.07z"/>
		<path class="st3" d="M564.76,82.92"/>
	</g>
</g>
</svg>
